# WaveFront *.obj file (generated by Autodesk ATF)

mtllib Stake_throught_heart_raczka.mtl

g Bryła2

v -180.733700 11.756407 288.861561
v -180.733700 11.927862 291.805325
v -180.733700 12.268454 285.957603
v -180.733700 12.773576 294.630222
v -180.733700 13.436397 283.250008
v -180.733700 14.247956 297.183914
v -180.733700 15.197275 280.884724
v -180.733700 16.271517 299.328766
v -180.733700 17.456156 278.989296
v -180.733700 18.735170 300.949135
v -180.733700 20.091264 277.665901
v -180.733700 21.506100 301.957664
v -180.733700 22.960541 276.985874
v -180.733700 24.434919 302.299995
v -180.733700 25.909300 276.985874
v -180.733700 27.363741 301.957664
v -180.733700 28.778577 277.665901
v -180.733700 30.134671 300.949135
v -180.733700 31.413684 278.989296
v -180.733700 32.598324 299.328766
v -180.733700 33.672566 280.884724
v -180.733700 34.621885 297.183914
v -180.733700 35.433443 283.250008
v -180.733700 36.096265 294.630222
v -180.733700 36.601386 285.957603
v -180.733700 36.941979 291.805325
v -180.733700 37.113433 288.861561
v -7.533706 11.756407 288.861561
v -7.533706 11.927862 291.805325
v -7.533706 12.268454 285.957603
v -7.533706 12.773576 294.630222
v -7.533706 13.436397 283.250008
v -7.533706 14.247956 297.183914
v -7.533706 15.197275 280.884724
v -7.533706 16.271517 299.328766
v -7.533706 17.456156 278.989296
v -7.533706 18.735170 300.949135
v -7.533706 20.091264 277.665901
v -7.533706 21.506100 301.957664
v -7.533706 22.960541 276.985874
v -7.533706 24.434919 302.299995
v -7.533706 25.909300 276.985874
v -7.533706 27.363741 301.957664
v -7.533706 28.778577 277.665901
v -7.533706 30.134671 300.949135
v -7.533706 31.413684 278.989296
v -7.533706 32.598324 299.328766
v -7.533706 33.672566 280.884724
v -7.533706 34.621885 297.183914
v -7.533706 35.433443 283.250008
v -7.533706 36.096265 294.630222
v -7.533706 36.601386 285.957603
v -7.533706 36.941979 291.805325
v -7.533706 37.113433 288.861561
vt -0.000000 -3.989823 0.000000
vt -0.000000 -3.694280 0.000000
vt -0.000000 -3.398738 0.000000
vt -0.000000 -3.103195 0.000000
vt -0.000000 -2.807653 0.000000
vt -0.000000 -2.512110 0.000000
vt -0.000000 -2.216568 0.000000
vt -0.000000 -1.921026 0.000000
vt -0.000000 -1.625483 0.000000
vt -0.000000 -1.329941 0.000000
vt -0.000000 -1.034398 0.000000
vt -0.000000 -0.738856 0.000000
vt -0.000000 -0.443314 0.000000
vt -0.000000 -0.147771 0.000000
vt -0.000000 0.147771 0.000000
vt -0.000000 0.443314 0.000000
vt -0.000000 0.738856 0.000000
vt -0.000000 1.034398 0.000000
vt -0.000000 1.329941 0.000000
vt -0.000000 1.625483 0.000000
vt -0.000000 1.921026 0.000000
vt -0.000000 2.216568 0.000000
vt -0.000000 2.512110 0.000000
vt -0.000000 2.807653 0.000000
vt -0.000000 3.103195 0.000000
vt -0.000000 3.398738 0.000000
vt -0.000000 3.694280 0.000000
vt -17.320000 3.989823 0.000000
vt -17.320000 3.694280 0.000000
vt -17.320000 3.398738 0.000000
vt -17.320000 3.103195 0.000000
vt -17.320000 2.807653 0.000000
vt -17.320000 2.512110 0.000000
vt -17.320000 2.216568 0.000000
vt -17.320000 1.921026 0.000000
vt -17.320000 1.625483 0.000000
vt -17.320000 1.329941 0.000000
vt -17.320000 1.034398 0.000000
vt -17.320000 0.738856 0.000000
vt -17.320000 0.443314 0.000000
vt -17.320000 0.147771 0.000000
vt -17.320000 -0.147771 0.000000
vt -17.320000 -0.443314 0.000000
vt -17.320000 -0.738856 0.000000
vt -17.320000 -1.034398 0.000000
vt -17.320000 -1.329941 0.000000
vt -17.320000 -1.625483 0.000000
vt -17.320000 -1.921026 0.000000
vt -17.320000 -2.216568 0.000000
vt -17.320000 -2.512110 0.000000
vt -17.320000 -2.807653 0.000000
vt -17.320000 -3.103195 0.000000
vt -17.320000 -3.398738 0.000000
vt -17.320000 -3.694280 0.000000
vt -17.320000 -3.989823 0.000000
vt -0.000000 3.989823 0.000000
vt 1.270000 0.000000 0.000000
vt 1.235767 0.292882 0.000000
vt 1.134913 0.569975 0.000000
vt 0.972876 0.816340 0.000000
vt 0.758391 1.018696 0.000000
vt 0.503021 1.166134 0.000000
vt 0.220533 1.250706 0.000000
vt -0.073844 1.267851 0.000000
vt -0.364240 1.216647 0.000000
vt -0.635000 1.099852 0.000000
vt -0.871527 0.923765 0.000000
vt -1.061069 0.697876 0.000000
vt -1.193410 0.434366 0.000000
vt -1.261413 0.147438 0.000000
vt -1.261413 -0.147438 0.000000
vt -1.193410 -0.434366 0.000000
vt -1.061069 -0.697876 0.000000
vt -0.871527 -0.923765 0.000000
vt -0.635000 -1.099852 0.000000
vt -0.364240 -1.216647 0.000000
vt -0.073844 -1.267851 0.000000
vt 0.220533 -1.250706 0.000000
vt 0.503021 -1.166134 0.000000
vt 0.758391 -1.018696 0.000000
vt 0.972876 -0.816340 0.000000
vt 1.134913 -0.569975 0.000000
vt 1.235767 -0.292882 0.000000
vt -1.270000 0.000000 0.000000
vt -1.235767 -0.292882 0.000000
vt -1.134913 -0.569975 0.000000
vt -0.972876 -0.816340 0.000000
vt -0.758391 -1.018696 0.000000
vt -0.503021 -1.166134 0.000000
vt -0.220533 -1.250706 0.000000
vt 0.073844 -1.267851 0.000000
vt 0.364240 -1.216647 0.000000
vt 0.635000 -1.099852 0.000000
vt 0.871527 -0.923765 0.000000
vt 1.061069 -0.697876 0.000000
vt 1.193410 -0.434366 0.000000
vt 1.261413 -0.147438 0.000000
vt 1.261413 0.147438 0.000000
vt 1.193410 0.434366 0.000000
vt 1.061069 0.697876 0.000000
vt 0.871527 0.923765 0.000000
vt 0.635000 1.099852 0.000000
vt 0.364240 1.216647 0.000000
vt 0.073844 1.267851 0.000000
vt -0.220533 1.250706 0.000000
vt -0.503021 1.166134 0.000000
vt -0.758391 1.018696 0.000000
vt -0.972876 0.816340 0.000000
vt -1.134913 0.569975 0.000000
vt -1.235767 0.292882 0.000000
vn 0.000000 0.000000 0.100000
vn 0.000000 -0.023062 0.097304
vn 0.000000 -0.044880 0.089363
vn 0.000000 -0.064279 0.076604
vn 0.000000 -0.080212 0.059716
vn 0.000000 -0.091822 0.039608
vn 0.000000 -0.098481 0.017365
vn 0.000000 -0.099831 -0.005814
vn 0.000000 -0.095799 -0.028680
vn 0.000000 -0.086603 -0.050000
vn 0.000000 -0.072737 -0.068624
vn 0.000000 -0.054951 -0.083549
vn 0.000000 -0.034202 -0.093969
vn 0.000000 -0.011609 -0.099324
vn 0.000000 0.011609 -0.099324
vn 0.000000 0.034202 -0.093969
vn 0.000000 0.054951 -0.083549
vn 0.000000 0.072737 -0.068624
vn 0.000000 0.086603 -0.050000
vn 0.000000 0.095799 -0.028680
vn 0.000000 0.099831 -0.005814
vn 0.000000 0.098481 0.017365
vn 0.000000 0.091822 0.039608
vn 0.000000 0.080212 0.059716
vn 0.000000 0.064279 0.076604
vn 0.000000 0.044880 0.089363
vn 0.000000 0.023062 0.097304
vn 0.000000 0.000000 0.100000
vn 0.000000 0.023062 0.097304
vn 0.000000 0.044880 0.089363
vn 0.000000 0.064279 0.076604
vn 0.000000 0.080212 0.059716
vn 0.000000 0.091822 0.039608
vn 0.000000 0.098481 0.017365
vn 0.000000 0.099831 -0.005814
vn 0.000000 0.095799 -0.028680
vn 0.000000 0.086603 -0.050000
vn 0.000000 0.072737 -0.068624
vn 0.000000 0.054951 -0.083549
vn 0.000000 0.034202 -0.093969
vn 0.000000 0.011609 -0.099324
vn 0.000000 -0.011609 -0.099324
vn 0.000000 -0.034202 -0.093969
vn 0.000000 -0.054951 -0.083549
vn 0.000000 -0.072737 -0.068624
vn 0.000000 -0.086603 -0.050000
vn 0.000000 -0.095799 -0.028680
vn 0.000000 -0.099831 -0.005814
vn 0.000000 -0.098481 0.017365
vn 0.000000 -0.091822 0.039608
vn 0.000000 -0.080212 0.059716
vn 0.000000 -0.064279 0.076604
vn 0.000000 -0.044880 0.089363
vn 0.000000 -0.023062 0.097304
vn 0.000000 0.000000 0.100000
vn 0.000000 0.000000 0.100000
vn -0.100000 0.000000 0.000000
vn -0.100000 0.000000 0.000000
vn -0.100000 0.000000 0.000000
vn -0.100000 0.000000 0.000000
vn -0.100000 0.000000 0.000000
vn -0.100000 0.000000 0.000000
vn -0.100000 0.000000 0.000000
vn -0.100000 0.000000 0.000000
vn -0.100000 0.000000 0.000000
vn -0.100000 0.000000 0.000000
vn -0.100000 0.000000 0.000000
vn -0.100000 0.000000 0.000000
vn -0.100000 0.000000 0.000000
vn -0.100000 0.000000 0.000000
vn -0.100000 0.000000 0.000000
vn -0.100000 0.000000 0.000000
vn -0.100000 0.000000 0.000000
vn -0.100000 0.000000 0.000000
vn -0.100000 0.000000 0.000000
vn -0.100000 0.000000 0.000000
vn -0.100000 0.000000 0.000000
vn -0.100000 0.000000 0.000000
vn -0.100000 0.000000 0.000000
vn -0.100000 0.000000 0.000000
vn -0.100000 0.000000 0.000000
vn -0.100000 0.000000 0.000000
vn -0.100000 0.000000 0.000000
vn 0.100000 0.000000 0.000000
vn 0.100000 0.000000 0.000000
vn 0.100000 0.000000 0.000000
vn 0.100000 0.000000 0.000000
vn 0.100000 0.000000 0.000000
vn 0.100000 0.000000 0.000000
vn 0.100000 0.000000 0.000000
vn 0.100000 0.000000 0.000000
vn 0.100000 0.000000 0.000000
vn 0.100000 0.000000 0.000000
vn 0.100000 0.000000 0.000000
vn 0.100000 0.000000 0.000000
vn 0.100000 0.000000 0.000000
vn 0.100000 0.000000 0.000000
vn 0.100000 0.000000 0.000000
vn 0.100000 0.000000 0.000000
vn 0.100000 0.000000 0.000000
vn 0.100000 0.000000 0.000000
vn 0.100000 0.000000 0.000000
vn 0.100000 0.000000 0.000000
vn 0.100000 0.000000 0.000000
vn 0.100000 0.000000 0.000000
vn 0.100000 0.000000 0.000000
vn 0.100000 0.000000 0.000000
vn 0.100000 0.000000 0.000000
vn 0.100000 0.000000 0.000000
vn 0.100000 0.000000 0.000000
usemtl 221,124,15
f 12/2/2 39/54/54 14/1/1
f 14/1/1 39/54/54 41/55/55
f 14/56/56 41/28/28 16/27/27
f 16/27/27 41/28/28 43/29/29
f 16/27/27 43/29/29 18/26/26
f 18/26/26 43/29/29 45/30/30
f 18/26/26 45/30/30 20/25/25
f 20/25/25 45/30/30 47/31/31
f 20/25/25 47/31/31 22/24/24
f 22/24/24 47/31/31 49/32/32
f 22/24/24 49/32/32 24/23/23
f 24/23/23 49/32/32 51/33/33
f 24/23/23 51/33/33 26/22/22
f 26/22/22 51/33/33 53/34/34
f 26/22/22 53/34/34 27/21/21
f 27/21/21 53/34/34 54/35/35
f 27/21/21 54/35/35 25/20/20
f 25/20/20 54/35/35 52/36/36
f 25/20/20 52/36/36 23/19/19
f 23/19/19 52/36/36 50/37/37
f 23/19/19 50/37/37 21/18/18
f 21/18/18 50/37/37 48/38/38
f 21/18/18 48/38/38 19/17/17
f 19/17/17 48/38/38 46/39/39
f 19/17/17 46/39/39 17/16/16
f 17/16/16 46/39/39 44/40/40
f 17/16/16 44/40/40 15/15/15
f 15/15/15 44/40/40 42/41/41
f 15/15/15 42/41/41 13/14/14
f 13/14/14 42/41/41 40/42/42
f 13/14/14 40/42/42 11/13/13
f 11/13/13 40/42/42 38/43/43
f 11/13/13 38/43/43 9/12/12
f 9/12/12 38/43/43 36/44/44
f 9/12/12 36/44/44 7/11/11
f 7/11/11 36/44/44 34/45/45
f 7/11/11 34/45/45 5/10/10
f 5/10/10 34/45/45 32/46/46
f 5/10/10 32/46/46 3/9/9
f 3/9/9 32/46/46 30/47/47
f 3/9/9 30/47/47 1/8/8
f 1/8/8 30/47/47 28/48/48
f 1/8/8 28/48/48 2/7/7
f 2/7/7 28/48/48 29/49/49
f 2/7/7 29/49/49 4/6/6
f 4/6/6 29/49/49 31/50/50
f 4/6/6 31/50/50 6/5/5
f 6/5/5 31/50/50 33/51/51
f 6/5/5 33/51/51 8/4/4
f 8/4/4 33/51/51 35/52/52
f 8/4/4 35/52/52 10/3/3
f 10/3/3 35/52/52 37/53/53
f 10/3/3 37/53/53 12/2/2
f 12/2/2 37/53/53 39/54/54
f 14/57/57 16/58/58 12/83/83
f 12/83/83 16/58/58 18/59/59
f 12/83/83 18/59/59 10/82/82
f 10/82/82 18/59/59 20/60/60
f 10/82/82 20/60/60 8/81/81
f 8/81/81 20/60/60 22/61/61
f 8/81/81 22/61/61 6/80/80
f 6/80/80 22/61/61 24/62/62
f 6/80/80 24/62/62 26/63/63
f 26/63/63 27/64/64 6/80/80
f 6/80/80 27/64/64 25/65/65
f 6/80/80 25/65/65 23/66/66
f 23/66/66 21/67/67 6/80/80
f 6/80/80 21/67/67 19/68/68
f 6/80/80 19/68/68 17/69/69
f 17/69/69 15/70/70 6/80/80
f 6/80/80 15/70/70 13/71/71
f 6/80/80 13/71/71 11/72/72
f 11/72/72 9/73/73 6/80/80
f 6/80/80 9/73/73 7/74/74
f 6/80/80 7/74/74 4/79/79
f 4/79/79 7/74/74 5/75/75
f 4/79/79 5/75/75 3/76/76
f 1/77/77 2/78/78 3/76/76
f 3/76/76 2/78/78 4/79/79
f 41/84/84 39/85/85 43/110/110
f 43/110/110 39/85/85 45/109/109
f 45/109/109 39/85/85 37/86/86
f 45/109/109 37/86/86 47/108/108
f 47/108/108 37/86/86 35/87/87
f 47/108/108 35/87/87 49/107/107
f 49/107/107 35/87/87 33/88/88
f 49/107/107 33/88/88 51/106/106
f 51/106/106 33/88/88 53/105/105
f 53/105/105 33/88/88 54/104/104
f 54/104/104 33/88/88 52/103/103
f 52/103/103 33/88/88 50/102/102
f 50/102/102 33/88/88 48/101/101
f 48/101/101 33/88/88 46/100/100
f 46/100/100 33/88/88 44/99/99
f 44/99/99 33/88/88 42/98/98
f 42/98/98 33/88/88 40/97/97
f 40/97/97 33/88/88 38/96/96
f 38/96/96 33/88/88 36/95/95
f 36/95/95 33/88/88 34/94/94
f 34/94/94 33/88/88 31/89/89
f 34/94/94 31/89/89 32/93/93
f 32/93/93 31/89/89 30/92/92
f 30/92/92 31/89/89 29/90/90
f 30/92/92 29/90/90 28/91/91

# 54 vertices
# 110 texture params
# 110 normals
# 104 facets

# 1 groups
