# WaveFront *.obj file (generated by Autodesk ATF)

mtllib Garlic_drop_top.mtl

g Bryła1

v -766.529846 -688.088303 0.000000
v -766.529846 -688.088303 4.000000
v -766.529846 -78.488288 0.000000
v -766.529846 -78.488288 4.000000
v -410.929871 -688.088303 0.000000
v -410.929871 -688.088303 4.000000
v -410.929871 -78.488288 0.000000
v -410.929871 -78.488288 4.000000
vt -0.400000 60.959999 0.000000
vt -0.400000 0.000000 0.000000
vt -0.000000 0.000000 0.000000
vt -0.000000 60.959999 0.000000
vt 0.400000 -35.560001 0.000000
vt 0.400000 0.000000 0.000000
vt -0.000000 0.000000 0.000000
vt -0.000000 -35.560001 0.000000
vt 0.400000 -60.959999 0.000000
vt 0.400000 0.000000 0.000000
vt -0.000000 0.000000 0.000000
vt -0.000000 -60.959999 0.000000
vt -0.400000 35.560001 0.000000
vt -0.400000 0.000000 0.000000
vt -0.000000 0.000000 0.000000
vt -0.000000 35.560001 0.000000
vt -76.652985 -7.848829 0.000000
vt -76.652985 -68.808830 0.000000
vt -41.092987 -68.808830 0.000000
vt -41.092987 -7.848829 0.000000
vt 76.652985 -68.808830 0.000000
vt 76.652985 -7.848829 0.000000
vt 41.092987 -7.848829 0.000000
vt 41.092987 -68.808830 0.000000
vn -0.100000 0.000000 0.000000
vn -0.100000 0.000000 0.000000
vn -0.100000 0.000000 0.000000
vn -0.100000 0.000000 0.000000
vn 0.000000 -0.100000 0.000000
vn 0.000000 -0.100000 0.000000
vn 0.000000 -0.100000 0.000000
vn 0.000000 -0.100000 0.000000
vn 0.100000 0.000000 0.000000
vn 0.100000 0.000000 0.000000
vn 0.100000 0.000000 0.000000
vn 0.100000 0.000000 0.000000
vn 0.000000 0.100000 0.000000
vn 0.000000 0.100000 0.000000
vn 0.000000 0.100000 0.000000
vn 0.000000 0.100000 0.000000
vn 0.000000 0.000000 0.100000
vn 0.000000 0.000000 0.100000
vn 0.000000 0.000000 0.100000
vn 0.000000 0.000000 0.100000
vn 0.000000 0.000000 -0.100000
vn 0.000000 0.000000 -0.100000
vn 0.000000 0.000000 -0.100000
vn 0.000000 0.000000 -0.100000
usemtl 245,245,245
f 1/2/2 2/3/3 3/1/1
f 3/1/1 2/3/3 4/4/4
f 5/6/6 6/7/7 1/5/5
f 1/5/5 6/7/7 2/8/8
f 7/10/10 8/11/11 5/9/9
f 5/9/9 8/11/11 6/12/12
f 3/14/14 4/15/15 7/13/13
f 7/13/13 4/15/15 8/16/16
f 2/18/18 6/19/19 4/17/17
f 4/17/17 6/19/19 8/20/20
f 3/22/22 7/23/23 1/21/21
f 1/21/21 7/23/23 5/24/24

g Bryła2

v -768.707657 -687.795029 4.220533
v -768.707657 -78.195009 4.220533
v -768.556824 -687.795029 3.365000
v -768.556824 -78.195009 3.365000
v -768.273315 -687.795029 4.972876
v -768.273315 -78.195009 4.972876
v -767.891312 -687.795029 2.806590
v -767.891312 -78.195009 2.806590
v -767.456970 -687.795029 5.270000
v -767.456970 -78.195009 5.270000
v -767.022552 -687.795029 2.806590
v -767.022552 -78.195009 2.806590
v -766.640625 -687.795029 4.972876
v -766.640625 -78.195009 4.972876
v -766.357117 -687.795029 3.365000
v -766.357117 -78.195009 3.365000
v -766.206207 -687.795029 4.220533
v -766.206207 -78.195009 4.220533
vt -0.127000 0.000000 0.000000
vt -0.097288 -0.081634 0.000000
vt -0.022053 -0.125071 0.000000
vt 0.063500 -0.109985 0.000000
vt 0.119341 -0.043437 0.000000
vt 0.119341 0.043437 0.000000
vt 0.063500 0.109985 0.000000
vt -0.022053 0.125071 0.000000
vt -0.097288 0.081634 0.000000
vt 0.127000 0.000000 0.000000
vt 0.097288 0.081634 0.000000
vt 0.022053 0.125071 0.000000
vt -0.063500 0.109985 0.000000
vt -0.119341 0.043437 0.000000
vt -0.119341 -0.043437 0.000000
vt -0.063500 -0.109985 0.000000
vt 0.022053 -0.125071 0.000000
vt 0.097288 -0.081634 0.000000
vt -60.960003 0.000000 0.000000
vt -60.960003 -0.088663 0.000000
vt -60.960003 -0.177325 0.000000
vt -60.960003 -0.265988 0.000000
vt -60.960003 -0.354651 0.000000
vt -60.960003 0.354651 0.000000
vt -60.960003 0.265988 0.000000
vt -60.960003 0.177325 0.000000
vt -60.960003 0.088663 0.000000
vt -0.000000 0.000000 0.000000
vt -0.000000 0.088663 0.000000
vt -0.000000 0.177325 0.000000
vt -0.000000 0.265988 0.000000
vt -0.000000 -0.443314 0.000000
vt -0.000000 -0.354651 0.000000
vt -0.000000 -0.265988 0.000000
vt -0.000000 -0.177325 0.000000
vt -0.000000 -0.088663 0.000000
vt -0.000000 0.354651 0.000000
vt -0.000000 0.354651 0.000000
vt -60.960003 -0.443314 0.000000
vt -60.960003 -0.443314 0.000000
vn 0.000000 -0.100000 0.000000
vn 0.000000 -0.100000 0.000000
vn 0.000000 -0.100000 0.000000
vn 0.000000 -0.100000 0.000000
vn 0.000000 -0.100000 0.000000
vn 0.000000 -0.100000 0.000000
vn 0.000000 -0.100000 0.000000
vn 0.000000 -0.100000 0.000000
vn 0.000000 -0.100000 0.000000
vn 0.000000 0.100000 0.000000
vn 0.000000 0.100000 0.000000
vn 0.000000 0.100000 0.000000
vn 0.000000 0.100000 0.000000
vn 0.000000 0.100000 0.000000
vn 0.000000 0.100000 0.000000
vn 0.000000 0.100000 0.000000
vn 0.000000 0.100000 0.000000
vn 0.000000 0.100000 0.000000
vn 0.000000 0.000000 0.100000
vn -0.064279 0.000000 0.076604
vn -0.098481 0.000000 0.017365
vn -0.086603 0.000000 -0.050000
vn -0.034202 0.000000 -0.093969
vn 0.034202 0.000000 -0.093969
vn 0.086603 0.000000 -0.050000
vn 0.098481 0.000000 0.017365
vn 0.064279 0.000000 0.076604
vn 0.000000 0.000000 0.100000
vn 0.064279 0.000000 0.076604
vn 0.098481 0.000000 0.017365
vn 0.086603 0.000000 -0.050000
vn 0.034202 0.000000 -0.093969
vn -0.034202 0.000000 -0.093969
vn -0.086603 0.000000 -0.050000
vn -0.098481 0.000000 0.017365
vn -0.064279 0.000000 0.076604
vn 0.034202 0.000000 -0.093969
vn 0.034202 0.000000 -0.093969
vn 0.034202 0.000000 -0.093969
vn 0.034202 0.000000 -0.093969
f 17/25/25 13/26/26 21/33/33
f 21/33/33 13/26/26 9/27/27
f 21/33/33 9/27/27 25/32/32
f 25/32/32 9/27/27 11/28/28
f 25/32/32 11/28/28 23/31/31
f 23/31/31 11/28/28 15/29/29
f 23/31/31 15/29/29 19/30/30
f 18/34/34 22/35/35 14/42/42
f 14/42/42 22/35/35 10/41/41
f 10/41/41 22/35/35 26/36/36
f 10/41/41 26/36/36 12/40/40
f 12/40/40 26/36/36 24/37/37
f 12/40/40 24/37/37 16/39/39
f 16/39/39 24/37/37 20/38/38
f 14/44/44 17/52/52 18/43/43
f 18/43/43 17/52/52 21/53/53
f 18/43/43 21/53/53 22/51/51
f 22/51/51 21/53/53 25/54/54
f 22/51/51 25/54/54 26/50/50
f 26/50/50 25/54/54 23/55/55
f 26/50/50 23/55/55 24/49/49
f 24/49/49 23/55/55 19/61/61
f 24/49/49 19/62/62 20/48/48
f 20/63/63 19/56/56 15/57/57
f 20/64/64 15/57/57 16/47/47
f 16/47/47 15/57/57 11/58/58
f 16/47/47 11/58/58 12/46/46
f 12/46/46 11/58/58 9/59/59
f 12/46/46 9/59/59 10/45/45
f 10/45/45 9/59/59 13/60/60
f 10/45/45 13/60/60 14/44/44
f 14/44/44 13/60/60 17/52/52

g Bryła3

v -411.071777 -687.795029 4.220533
v -411.071777 -78.195009 4.220533
v -410.920906 -687.795029 3.365000
v -410.920906 -78.195009 3.365000
v -410.637398 -687.795029 4.972876
v -410.637398 -78.195009 4.972876
v -410.255432 -687.795029 2.806590
v -410.255432 -78.195009 2.806590
v -409.821053 -687.795029 5.270000
v -409.821053 -78.195009 5.270000
v -409.386711 -687.795029 2.806590
v -409.386711 -78.195009 2.806590
v -409.004707 -687.795029 4.972876
v -409.004707 -78.195009 4.972876
v -408.721199 -687.795029 3.365000
v -408.721199 -78.195009 3.365000
v -408.570366 -687.795029 4.220533
v -408.570366 -78.195009 4.220533
vt -0.127000 0.000000 0.000000
vt -0.097288 -0.081634 0.000000
vt -0.022053 -0.125071 0.000000
vt 0.063500 -0.109985 0.000000
vt 0.119341 -0.043437 0.000000
vt 0.119341 0.043437 0.000000
vt 0.063500 0.109985 0.000000
vt -0.022053 0.125071 0.000000
vt -0.097288 0.081634 0.000000
vt 0.127000 0.000000 0.000000
vt 0.097288 0.081634 0.000000
vt 0.022053 0.125071 0.000000
vt -0.063500 0.109985 0.000000
vt -0.119341 0.043437 0.000000
vt -0.119341 -0.043437 0.000000
vt -0.063500 -0.109985 0.000000
vt 0.022053 -0.125071 0.000000
vt 0.097288 -0.081634 0.000000
vt -60.960003 0.000000 0.000000
vt -60.960003 -0.088663 0.000000
vt -60.960003 -0.177325 0.000000
vt -60.960003 -0.265988 0.000000
vt -60.960003 -0.354651 0.000000
vt -60.960003 0.354651 0.000000
vt -60.960003 0.265988 0.000000
vt -60.960003 0.177325 0.000000
vt -60.960003 0.088663 0.000000
vt -0.000000 0.000000 0.000000
vt -0.000000 0.088663 0.000000
vt -0.000000 0.177325 0.000000
vt -0.000000 0.265988 0.000000
vt -0.000000 -0.443314 0.000000
vt -0.000000 -0.354651 0.000000
vt -0.000000 -0.265988 0.000000
vt -0.000000 -0.177325 0.000000
vt -0.000000 -0.088663 0.000000
vt -0.000000 0.354651 0.000000
vt -0.000000 0.354651 0.000000
vt -60.960003 -0.443314 0.000000
vt -60.960003 -0.443314 0.000000
vn 0.000000 -0.100000 0.000000
vn 0.000000 -0.100000 0.000000
vn 0.000000 -0.100000 0.000000
vn 0.000000 -0.100000 0.000000
vn 0.000000 -0.100000 0.000000
vn 0.000000 -0.100000 0.000000
vn 0.000000 -0.100000 0.000000
vn 0.000000 -0.100000 0.000000
vn 0.000000 -0.100000 0.000000
vn 0.000000 0.100000 0.000000
vn 0.000000 0.100000 0.000000
vn 0.000000 0.100000 0.000000
vn 0.000000 0.100000 0.000000
vn 0.000000 0.100000 0.000000
vn 0.000000 0.100000 0.000000
vn 0.000000 0.100000 0.000000
vn 0.000000 0.100000 0.000000
vn 0.000000 0.100000 0.000000
vn 0.000000 0.000000 0.100000
vn -0.064279 0.000000 0.076604
vn -0.098481 0.000000 0.017365
vn -0.086603 0.000000 -0.050000
vn -0.034202 0.000000 -0.093969
vn 0.034202 0.000000 -0.093969
vn 0.086603 0.000000 -0.050000
vn 0.098481 0.000000 0.017365
vn 0.064279 0.000000 0.076604
vn 0.000000 0.000000 0.100000
vn 0.064279 0.000000 0.076604
vn 0.098481 0.000000 0.017365
vn 0.086603 0.000000 -0.050000
vn 0.034202 0.000000 -0.093969
vn -0.034202 0.000000 -0.093969
vn -0.086603 0.000000 -0.050000
vn -0.098481 0.000000 0.017365
vn -0.064279 0.000000 0.076604
vn 0.034202 0.000000 -0.093969
vn 0.034202 0.000000 -0.093969
vn 0.034202 0.000000 -0.093969
vn 0.034202 0.000000 -0.093969
f 35/65/65 31/66/66 39/73/73
f 39/73/73 31/66/66 27/67/67
f 39/73/73 27/67/67 43/72/72
f 43/72/72 27/67/67 29/68/68
f 43/72/72 29/68/68 41/71/71
f 41/71/71 29/68/68 33/69/69
f 41/71/71 33/69/69 37/70/70
f 36/74/74 40/75/75 32/82/82
f 32/82/82 40/75/75 28/81/81
f 28/81/81 40/75/75 44/76/76
f 28/81/81 44/76/76 30/80/80
f 30/80/80 44/76/76 42/77/77
f 30/80/80 42/77/77 34/79/79
f 34/79/79 42/77/77 38/78/78
f 32/84/84 35/92/92 36/83/83
f 36/83/83 35/92/92 39/93/93
f 36/83/83 39/93/93 40/91/91
f 40/91/91 39/93/93 43/94/94
f 40/91/91 43/94/94 44/90/90
f 44/90/90 43/94/94 41/95/95
f 44/90/90 41/95/95 42/89/89
f 42/89/89 41/95/95 37/101/101
f 42/89/89 37/102/102 38/88/88
f 38/103/103 37/96/96 33/97/97
f 38/104/104 33/97/97 34/87/87
f 34/87/87 33/97/97 29/98/98
f 34/87/87 29/98/98 30/86/86
f 30/86/86 29/98/98 27/99/99
f 30/86/86 27/99/99 28/85/85
f 28/85/85 27/99/99 31/100/100
f 28/85/85 31/100/100 32/84/84
f 32/84/84 31/100/100 35/92/92

# 44 vertices
# 104 texture params
# 104 normals
# 76 facets

# 3 groups
