# WaveFront *.obj file (generated by Autodesk ATF)

mtllib Garlic_drop_box.mtl

g Bryła1

v -1093.885498 0.000000 -719.385529
v -1093.885498 0.000000 -109.785519
v -1093.885498 4.000000 -719.385529
v -1093.885498 4.000000 -109.785519
v -941.885529 4.000000 -567.385521
v -941.885529 4.000000 -261.785526
v -941.885529 156.400003 -567.385521
v -941.885529 156.400003 -261.785526
v -941.485519 0.000000 -566.985512
v -941.485519 0.000000 -262.185516
v -941.485519 151.999998 -566.985512
v -941.485519 151.999998 -262.185516
v -331.885529 0.000000 -566.985512
v -331.885529 0.000000 -262.185516
v -331.885529 151.999998 -566.985512
v -331.885529 151.999998 -262.185516
v -331.485519 4.000000 -567.385521
v -331.485519 4.000000 -261.785526
v -331.485519 156.400003 -567.385521
v -331.485519 156.400003 -261.785526
v -179.485531 0.000000 -719.385529
v -179.485531 0.000000 -109.785519
v -179.485531 4.000000 -719.385529
v -179.485531 4.000000 -109.785519
vt 10.978552 -17.948553 0.000000
vt 10.978552 -109.388550 0.000000
vt 71.938553 -109.388550 0.000000
vt 71.938553 -17.948553 0.000000
vt 26.218552 -94.148552 0.000000
vt 26.218552 -33.188553 0.000000
vt 56.698551 -33.188553 0.000000
vt 56.698551 -94.148552 0.000000
vt -91.440002 -0.400000 0.000000
vt 0.000000 -0.400000 0.000000
vt 0.000000 0.000000 0.000000
vt -91.440002 0.000000 0.000000
vt -60.959999 -0.400000 0.000000
vt 0.000000 -0.400000 0.000000
vt 0.000000 0.000000 0.000000
vt -60.959999 0.000000 0.000000
vt -91.440002 -0.400000 0.000000
vt 0.000000 -0.400000 0.000000
vt 0.000000 0.000000 0.000000
vt -91.440002 0.000000 0.000000
vt -60.959999 -0.400000 0.000000
vt 0.000000 -0.400000 0.000000
vt 0.000000 0.000000 0.000000
vt -60.959999 0.000000 0.000000
vt -61.040001 -15.240000 0.000000
vt 0.000000 -15.240000 0.000000
vt 0.000000 0.000000 0.000000
vt -61.040001 0.000000 0.000000
vt -30.559999 -15.240000 0.000000
vt 0.000000 -15.240000 0.000000
vt 0.000000 0.000000 0.000000
vt -30.559999 0.000000 0.000000
vt -10.978552 -109.388550 0.000000
vt -10.978552 -17.948553 0.000000
vt -71.938553 -17.948553 0.000000
vt -71.938553 -109.388550 0.000000
vt -56.738552 -94.188553 0.000000
vt -56.738552 -33.148552 0.000000
vt -26.178553 -33.148552 0.000000
vt -26.178553 -94.188553 0.000000
vt -30.559999 -15.240000 0.000000
vt 0.000000 -15.240000 0.000000
vt 0.000000 0.000000 0.000000
vt -30.559999 0.000000 0.000000
vt -26.178553 -33.148552 0.000000
vt -56.738552 -33.148552 0.000000
vt -56.738552 -94.188553 0.000000
vt -26.178553 -94.188553 0.000000
vt -61.040001 -15.240000 0.000000
vt 0.000000 -15.240000 0.000000
vt 0.000000 0.000000 0.000000
vt -61.040001 0.000000 0.000000
vt -60.959999 -15.200000 0.000000
vt 0.000000 -15.200000 0.000000
vt 0.000000 0.000000 0.000000
vt -60.959999 0.000000 0.000000
vt -30.480000 -15.200000 0.000000
vt 0.000000 -15.200000 0.000000
vt 0.000000 0.000000 0.000000
vt -30.480000 0.000000 0.000000
vt -30.480000 -15.200000 0.000000
vt 0.000000 -15.200000 0.000000
vt 0.000000 0.000000 0.000000
vt -30.480000 0.000000 0.000000
vt 56.698551 -33.188553 0.000000
vt 26.218552 -33.188553 0.000000
vt 26.218552 -94.148552 0.000000
vt 56.698551 -94.148552 0.000000
vt -60.959999 -15.200000 0.000000
vt 0.000000 -15.200000 0.000000
vt 0.000000 0.000000 0.000000
vt -60.959999 0.000000 0.000000
vn 0.000000 -0.100000 0.000000
vn 0.000000 -0.100000 0.000000
vn 0.000000 -0.100000 0.000000
vn 0.000000 -0.100000 0.000000
vn 0.000000 -0.100000 0.000000
vn 0.000000 -0.100000 0.000000
vn 0.000000 -0.100000 0.000000
vn 0.000000 -0.100000 0.000000
vn 0.000000 0.000000 0.100000
vn 0.000000 0.000000 0.100000
vn 0.000000 0.000000 0.100000
vn 0.000000 0.000000 0.100000
vn 0.100000 0.000000 0.000000
vn 0.100000 0.000000 0.000000
vn 0.100000 0.000000 0.000000
vn 0.100000 0.000000 0.000000
vn 0.000000 0.000000 -0.100000
vn 0.000000 0.000000 -0.100000
vn 0.000000 0.000000 -0.100000
vn 0.000000 0.000000 -0.100000
vn -0.100000 0.000000 0.000000
vn -0.100000 0.000000 0.000000
vn -0.100000 0.000000 0.000000
vn -0.100000 0.000000 0.000000
vn 0.000000 0.000000 0.100000
vn 0.000000 0.000000 0.100000
vn 0.000000 0.000000 0.100000
vn 0.000000 0.000000 0.100000
vn -0.100000 0.000000 0.000000
vn -0.100000 0.000000 0.000000
vn -0.100000 0.000000 0.000000
vn -0.100000 0.000000 0.000000
vn 0.000000 0.100000 0.000000
vn 0.000000 0.100000 0.000000
vn 0.000000 0.100000 0.000000
vn 0.000000 0.100000 0.000000
vn 0.000000 0.100000 0.000000
vn 0.000000 0.100000 0.000000
vn 0.000000 0.100000 0.000000
vn 0.000000 0.100000 0.000000
vn 0.100000 0.000000 0.000000
vn 0.100000 0.000000 0.000000
vn 0.100000 0.000000 0.000000
vn 0.100000 0.000000 0.000000
vn 0.000000 0.100000 0.000000
vn 0.000000 0.100000 0.000000
vn 0.000000 0.100000 0.000000
vn 0.000000 0.100000 0.000000
vn 0.000000 0.000000 -0.100000
vn 0.000000 0.000000 -0.100000
vn 0.000000 0.000000 -0.100000
vn 0.000000 0.000000 -0.100000
vn 0.000000 0.000000 0.100000
vn 0.000000 0.000000 0.100000
vn 0.000000 0.000000 0.100000
vn 0.000000 0.000000 0.100000
vn -0.100000 0.000000 0.000000
vn -0.100000 0.000000 0.000000
vn -0.100000 0.000000 0.000000
vn -0.100000 0.000000 0.000000
vn 0.100000 0.000000 0.000000
vn 0.100000 0.000000 0.000000
vn 0.100000 0.000000 0.000000
vn 0.100000 0.000000 0.000000
vn 0.000000 -0.100000 0.000000
vn 0.000000 -0.100000 0.000000
vn 0.000000 -0.100000 0.000000
vn 0.000000 -0.100000 0.000000
vn 0.000000 0.000000 -0.100000
vn 0.000000 0.000000 -0.100000
vn 0.000000 0.000000 -0.100000
vn 0.000000 0.000000 -0.100000
usemtl 245,245,245
f 2/2/2 14/6/6 22/1/1
f 22/1/1 14/6/6 13/7/7
f 22/1/1 13/7/7 21/4/4
f 21/4/4 13/7/7 1/3/3
f 1/3/3 13/7/7 9/8/8
f 1/3/3 9/8/8 10/5/5
f 14/6/6 2/2/2 10/5/5
f 10/5/5 2/2/2 1/3/3
usemtl 202,209,238
f 2/9/9 22/10/10 4/12/12
f 4/12/12 22/10/10 24/11/11
f 22/13/13 21/14/14 24/16/16
f 24/16/16 21/14/14 23/15/15
f 21/17/17 1/18/18 23/20/20
f 23/20/20 1/18/18 3/19/19
f 1/21/21 2/22/22 3/24/24
f 3/24/24 2/22/22 4/23/23
usemtl 840EDFE9E54295EC0CCFCC6B8A57544615D92180
f 6/25/25 18/26/26 8/28/28
f 8/28/28 18/26/26 20/27/27
f 5/29/29 6/30/30 7/32/32
f 7/32/32 6/30/30 8/31/31
f 24/34/34 18/39/39 4/33/33
f 4/33/33 18/39/39 6/40/40
f 4/33/33 6/40/40 5/37/37
f 24/34/34 23/35/35 18/39/39
f 18/39/39 23/35/35 17/38/38
f 17/38/38 23/35/35 3/36/36
f 17/38/38 3/36/36 5/37/37
f 5/37/37 3/36/36 4/33/33
f 18/41/41 17/42/42 20/44/44
f 20/44/44 17/42/42 19/43/43
f 20/45/45 19/46/46 8/48/48
f 8/48/48 19/46/46 7/47/47
f 17/49/49 5/50/50 19/52/52
f 19/52/52 5/50/50 7/51/51
f 9/53/53 13/54/54 11/56/56
f 11/56/56 13/54/54 15/55/55
f 13/57/57 14/58/58 15/60/60
f 15/60/60 14/58/58 16/59/59
f 10/61/61 9/62/62 12/64/64
f 12/64/64 9/62/62 11/63/63
f 15/65/65 16/66/66 11/68/68
f 11/68/68 16/66/66 12/67/67
f 14/69/69 10/70/70 16/72/72
f 16/72/72 10/70/70 12/71/71

# 24 vertices
# 72 texture params
# 72 normals
# 44 facets

# 1 groups
