# WaveFront *.obj file (generated by Autodesk ATF)

mtllib Expose_to_sunlight_tego.mtl

g Bryła7

v -22.552407 137.773476 140.224152
v -22.531142 48.873477 138.962812
v -22.531142 48.873477 140.437193
v -22.502706 137.773476 138.750610
v -22.459152 137.773476 138.497353
v -22.260950 137.773476 141.669436
v -22.191126 48.873477 137.528172
v -22.191126 48.873477 141.871824
v -22.176321 137.773476 141.912079
v -22.114520 137.773476 137.328253
v -21.903467 137.773476 136.859751
v -21.644039 137.773476 143.008547
v -21.529427 48.873477 136.210613
v -21.529427 48.873477 143.189383
v -21.408780 137.773476 136.033754
v -21.358783 137.773476 143.435946
v -20.926571 137.773476 135.432796
v -20.734940 137.773476 144.169302
v -20.581713 48.873477 135.081177
v -20.581713 48.873477 144.318819
v -20.423532 137.773476 134.936905
v -20.160429 137.773476 144.682732
v -19.600910 137.773476 134.322319
v -19.582658 137.773476 145.089102
v -19.399078 48.873477 134.200735
v -19.399078 48.873477 145.199261
v -19.211888 137.773476 134.096832
v -18.670132 137.773476 145.559978
v -18.249314 137.773476 145.718384
v -18.045279 48.873477 133.616762
v -18.045279 48.873477 145.783234
v -18.024806 137.773476 133.610678
v -17.839172 137.773476 133.558826
v -16.998423 137.773476 146.002607
v -16.806790 137.773476 146.023207
v -16.593298 48.873477 133.360739
v -16.593298 48.873477 146.039257
v -16.379386 137.773476 133.351898
v -16.315150 137.773476 133.350649
v -15.332850 137.773476 145.987148
v -15.269284 137.773476 145.977812
v -15.121412 48.873477 133.446474
v -15.121412 48.873477 145.953531
v -14.911227 137.773476 133.487196
v -14.598739 137.773476 133.561535
v -13.906958 137.773476 145.612144
v -13.708972 48.873477 133.869324
v -13.708972 48.873477 145.530672
v -13.610959 137.773476 145.487413
v -13.513844 137.773476 133.957424
v -13.002872 137.773476 134.227676
v -12.605982 137.773476 144.918413
v -12.432121 48.873477 134.606514
v -12.432121 48.873477 144.793482
v -12.262571 137.773476 134.737244
v -12.146436 137.773476 144.567785
v -11.645908 137.773476 135.299673
v -11.500058 137.773476 143.943367
v -11.359695 48.873477 135.618296
v -11.359695 48.873477 143.781700
v -11.224862 137.773476 135.784597
v -10.984333 137.773476 143.287144
v -10.648807 137.773476 142.739553
v -10.628486 137.773476 136.698027
v -10.549511 48.873477 136.850128
v -10.549511 48.873477 142.549877
v -10.456665 137.773476 137.043037
v -10.210838 137.773476 141.740456
v -10.098121 137.773476 141.371870
v -10.045242 48.873477 138.235588
v -10.045242 48.873477 141.164408
v -10.026063 137.773476 138.319016
v -9.999388 137.773476 138.444719
v -9.883318 137.773476 140.042439
v -9.877687 137.773476 139.914064
v -9.874078 48.873477 139.700003
vt -8.889999 0.052475 0.000000
vt -8.889999 -0.095296 0.000000
vt -8.889999 -0.243067 0.000000
vt -8.889999 -0.390838 0.000000
vt -8.889999 -0.538610 0.000000
vt -8.889999 -0.686381 0.000000
vt -8.889999 -0.834152 0.000000
vt -8.889999 -0.981923 0.000000
vt -8.889999 -1.129694 0.000000
vt -8.889999 -1.277466 0.000000
vt -8.889999 -1.425237 0.000000
vt -8.889999 -1.573008 0.000000
vt -8.889999 -1.720779 0.000000
vt -8.889999 2.121272 0.000000
vt -8.889999 1.973501 0.000000
vt -8.889999 1.825730 0.000000
vt -8.889999 1.677958 0.000000
vt -8.889999 1.530187 0.000000
vt -8.889999 1.382416 0.000000
vt -8.889999 1.234645 0.000000
vt -8.889999 1.086874 0.000000
vt -8.889999 0.939102 0.000000
vt -8.889999 0.791331 0.000000
vt -8.889999 0.643560 0.000000
vt -8.889999 0.495789 0.000000
vt -8.889999 0.348018 0.000000
vt -8.889999 0.200246 0.000000
vt -0.000000 -1.994911 0.000000
vt -0.000000 -1.847140 0.000000
vt -0.000000 -1.699369 0.000000
vt -0.000000 -1.551598 0.000000
vt -0.000000 -1.403826 0.000000
vt -0.000000 -1.256055 0.000000
vt -0.000000 -1.108284 0.000000
vt -0.000000 -0.960513 0.000000
vt -0.000000 -0.812742 0.000000
vt -0.000000 -0.664970 0.000000
vt -0.000000 -0.517199 0.000000
vt -0.000000 -0.369428 0.000000
vt -0.000000 -0.221657 0.000000
vt -0.000000 -0.073886 0.000000
vt -0.000000 0.073886 0.000000
vt -0.000000 0.221657 0.000000
vt -0.000000 0.369428 0.000000
vt -0.000000 0.517199 0.000000
vt -0.000000 0.664970 0.000000
vt -0.000000 0.812742 0.000000
vt -0.000000 0.960513 0.000000
vt -0.000000 1.108284 0.000000
vt -0.000000 1.256055 0.000000
vt -0.000000 1.403826 0.000000
vt -0.000000 1.551598 0.000000
vt -0.000000 1.699369 0.000000
vt -0.000000 1.847140 0.000000
vt -0.000000 1.994911 0.000000
vt -0.000000 1.994911 0.000000
vt -8.889999 -1.868551 0.000000
vt -8.889999 -1.868551 0.000000
vt 0.052415 -0.632833 0.000000
vt 0.221208 -0.595224 0.000000
vt 0.373595 -0.513471 0.000000
vt 0.498273 -0.393635 0.000000
vt 0.585998 -0.244605 0.000000
vt 0.630261 -0.077435 0.000000
vt 0.627781 0.095479 0.000000
vt 0.578741 0.261312 0.000000
vt 0.486779 0.407764 0.000000
vt 0.358714 0.523974 0.000000
vt 0.204045 0.601324 0.000000
vt 0.034243 0.634076 0.000000
vt -0.138098 0.619802 0.000000
vt -0.300197 0.559559 0.000000
vt -0.440033 0.457817 0.000000
vt -0.547233 0.322120 0.000000
vt -0.613847 0.162534 0.000000
vt -0.634935 -0.009107 0.000000
vt -0.608932 -0.180073 0.000000
vt -0.537769 -0.337683 0.000000
vt -0.426721 -0.470249 0.000000
vt -0.284025 -0.567939 0.000000
vt -0.120265 -0.623507 0.000000
vt 0.000000 0.635000 0.000000
vt -0.146441 0.617884 0.000000
vt -0.284987 0.567457 0.000000
vt -0.408170 0.486438 0.000000
vt -0.509348 0.379196 0.000000
vt -0.583067 0.251511 0.000000
vt -0.625353 0.110267 0.000000
vt -0.633926 -0.036922 0.000000
vt -0.608323 -0.182120 0.000000
vt -0.549926 -0.317500 0.000000
vt -0.461882 -0.435763 0.000000
vt -0.348938 -0.530535 0.000000
vt -0.217183 -0.596705 0.000000
vt -0.073719 -0.630706 0.000000
vt 0.073719 -0.630706 0.000000
vt 0.217183 -0.596705 0.000000
vt 0.348938 -0.530535 0.000000
vt 0.461882 -0.435763 0.000000
vt 0.549926 -0.317500 0.000000
vt 0.608323 -0.182120 0.000000
vt 0.633926 -0.036922 0.000000
vt 0.625353 0.110267 0.000000
vt 0.583067 0.251511 0.000000
vt 0.509348 0.379196 0.000000
vt 0.408170 0.486438 0.000000
vt 0.284987 0.567457 0.000000
vt 0.146441 0.617884 0.000000
vn 0.100000 0.000000 0.000000
vn 0.097304 0.000000 -0.023062
vn 0.089363 0.000000 -0.044880
vn 0.076604 0.000000 -0.064279
vn 0.059716 0.000000 -0.080212
vn 0.039608 0.000000 -0.091822
vn 0.017365 0.000000 -0.098481
vn -0.005814 0.000000 -0.099831
vn -0.028680 0.000000 -0.095799
vn -0.050000 0.000000 -0.086603
vn -0.068624 0.000000 -0.072737
vn -0.083549 0.000000 -0.054951
vn -0.093969 0.000000 -0.034202
vn -0.099324 0.000000 -0.011609
vn -0.099324 0.000000 0.011609
vn -0.093969 0.000000 0.034202
vn -0.083549 0.000000 0.054951
vn -0.068624 0.000000 0.072737
vn -0.050000 0.000000 0.086603
vn -0.028680 0.000000 0.095799
vn -0.005814 0.000000 0.099831
vn 0.017365 0.000000 0.098481
vn 0.039608 0.000000 0.091822
vn 0.059716 0.000000 0.080212
vn 0.076604 0.000000 0.064279
vn 0.089363 0.000000 0.044880
vn 0.097304 0.000000 0.023062
vn -0.099659 0.000000 0.008254
vn -0.098876 0.000000 -0.014951
vn -0.092763 0.000000 -0.037350
vn -0.081649 0.000000 -0.057736
vn -0.066133 0.000000 -0.075009
vn -0.047052 0.000000 -0.088239
vn -0.025435 0.000000 -0.096711
vn -0.002446 0.000000 -0.099970
vn 0.020675 0.000000 -0.097839
vn 0.042681 0.000000 -0.090434
vn 0.062386 0.000000 -0.078154
vn 0.078728 0.000000 -0.061660
vn 0.090825 0.000000 -0.041842
vn 0.098027 0.000000 -0.019768
vn 0.099943 0.000000 0.003371
vn 0.096472 0.000000 0.026329
vn 0.087800 0.000000 0.047867
vn 0.074394 0.000000 0.066825
vn 0.056978 0.000000 0.082180
vn 0.036490 0.000000 0.093105
vn 0.014035 0.000000 0.099010
vn -0.009177 0.000000 0.099578
vn -0.031893 0.000000 0.094778
vn -0.052891 0.000000 0.084868
vn -0.071037 0.000000 0.070383
vn -0.085354 0.000000 0.052103
vn -0.095069 0.000000 0.031015
vn -0.099659 0.000000 0.008254
vn -0.099659 0.000000 0.008254
vn -0.099324 0.000000 -0.011609
vn -0.099324 0.000000 -0.011609
vn 0.000000 0.100000 0.000000
vn 0.000000 0.100000 0.000000
vn 0.000000 0.100000 0.000000
vn 0.000000 0.100000 0.000000
vn 0.000000 0.100000 0.000000
vn 0.000000 0.100000 0.000000
vn 0.000000 0.100000 0.000000
vn 0.000000 0.100000 0.000000
vn 0.000000 0.100000 0.000000
vn 0.000000 0.100000 0.000000
vn 0.000000 0.100000 0.000000
vn 0.000000 0.100000 0.000000
vn 0.000000 0.100000 0.000000
vn 0.000000 0.100000 0.000000
vn 0.000000 0.100000 0.000000
vn 0.000000 0.100000 0.000000
vn 0.000000 0.100000 0.000000
vn 0.000000 0.100000 0.000000
vn 0.000000 0.100000 0.000000
vn 0.000000 0.100000 0.000000
vn 0.000000 0.100000 0.000000
vn 0.000000 0.100000 0.000000
vn 0.000000 0.100000 0.000000
vn 0.000000 -0.100000 0.000000
vn 0.000000 -0.100000 0.000000
vn 0.000000 -0.100000 0.000000
vn 0.000000 -0.100000 0.000000
vn 0.000000 -0.100000 0.000000
vn 0.000000 -0.100000 0.000000
vn 0.000000 -0.100000 0.000000
vn 0.000000 -0.100000 0.000000
vn 0.000000 -0.100000 0.000000
vn 0.000000 -0.100000 0.000000
vn 0.000000 -0.100000 0.000000
vn 0.000000 -0.100000 0.000000
vn 0.000000 -0.100000 0.000000
vn 0.000000 -0.100000 0.000000
vn 0.000000 -0.100000 0.000000
vn 0.000000 -0.100000 0.000000
vn 0.000000 -0.100000 0.000000
vn 0.000000 -0.100000 0.000000
vn 0.000000 -0.100000 0.000000
vn 0.000000 -0.100000 0.000000
vn 0.000000 -0.100000 0.000000
vn 0.000000 -0.100000 0.000000
vn 0.000000 -0.100000 0.000000
vn 0.000000 -0.100000 0.000000
vn 0.000000 -0.100000 0.000000
vn 0.000000 -0.100000 0.000000
vn 0.000000 -0.100000 0.000000
usemtl 176,2,183
f 70/2/2 73/41/41 76/1/1
f 76/1/1 73/41/41 75/42/42
f 76/1/1 75/42/42 71/27/27
f 71/27/27 75/42/42 69/43/43
f 71/27/27 69/43/43 66/26/26
f 66/26/26 69/43/43 63/44/44
f 66/26/26 63/44/44 60/25/25
f 60/25/25 63/44/44 58/45/45
f 60/25/25 58/45/45 54/24/24
f 54/24/24 58/45/45 52/46/46
f 54/24/24 52/46/46 48/23/23
f 48/23/23 52/46/46 46/47/47
f 48/23/23 46/47/47 43/22/22
f 43/22/22 46/47/47 40/48/48
f 43/22/22 40/48/48 37/21/21
f 37/21/21 40/48/48 35/49/49
f 37/21/21 35/49/49 31/20/20
f 31/20/20 35/49/49 29/50/50
f 31/20/20 29/50/50 26/19/19
f 26/19/19 29/50/50 24/51/51
f 26/19/19 24/51/51 20/18/18
f 20/18/18 24/51/51 18/52/52
f 20/18/18 18/52/52 14/17/17
f 14/17/17 18/52/52 12/53/53
f 14/17/17 12/53/53 8/16/16
f 8/16/16 12/53/53 6/54/54
f 8/16/16 6/54/54 3/15/15
f 3/15/15 6/54/54 1/55/55
f 3/15/15 1/56/56 2/14/14
f 2/57/57 1/28/28 4/29/29
f 2/58/58 4/29/29 7/13/13
f 7/13/13 4/29/29 10/30/30
f 7/13/13 10/30/30 13/12/12
f 13/12/12 10/30/30 15/31/31
f 13/12/12 15/31/31 19/11/11
f 19/11/11 15/31/31 21/32/32
f 19/11/11 21/32/32 25/10/10
f 25/10/10 21/32/32 27/33/33
f 25/10/10 27/33/33 30/9/9
f 30/9/9 27/33/33 33/34/34
f 30/9/9 33/34/34 36/8/8
f 36/8/8 33/34/34 38/35/35
f 36/8/8 38/35/35 42/7/7
f 42/7/7 38/35/35 44/36/36
f 42/7/7 44/36/36 47/6/6
f 47/6/6 44/36/36 50/37/37
f 47/6/6 50/37/37 53/5/5
f 53/5/5 50/37/37 55/38/38
f 53/5/5 55/38/38 59/4/4
f 59/4/4 55/38/38 61/39/39
f 59/4/4 61/39/39 65/3/3
f 65/3/3 61/39/39 67/40/40
f 65/3/3 67/40/40 70/2/2
f 70/2/2 67/40/40 73/41/41
f 1/59/59 9/60/60 5/81/81
f 5/81/81 9/60/60 11/80/80
f 11/80/80 9/60/60 16/61/61
f 11/80/80 16/61/61 17/79/79
f 17/79/79 16/61/61 22/62/62
f 17/79/79 22/62/62 23/78/78
f 23/78/78 22/62/62 28/63/63
f 23/78/78 28/63/63 32/77/77
f 32/77/77 28/63/63 34/64/64
f 32/77/77 34/64/64 39/76/76
f 39/76/76 34/64/64 41/65/65
f 39/76/76 41/65/65 45/75/75
f 45/75/75 41/65/65 49/66/66
f 45/75/75 49/66/66 51/74/74
f 51/74/74 49/66/66 56/67/67
f 51/74/74 56/67/67 57/73/73
f 57/73/73 56/67/67 62/68/68
f 57/73/73 62/68/68 64/72/72
f 64/72/72 62/68/68 68/69/69
f 64/72/72 68/69/69 72/71/71
f 72/71/71 68/69/69 74/70/70
f 76/82/82 71/83/83 70/108/108
f 70/108/108 71/83/83 65/107/107
f 65/107/107 71/83/83 66/84/84
f 65/107/107 66/84/84 59/106/106
f 59/106/106 66/84/84 60/85/85
f 59/106/106 60/85/85 53/105/105
f 53/105/105 60/85/85 54/86/86
f 53/105/105 54/86/86 47/104/104
f 47/104/104 54/86/86 48/87/87
f 47/104/104 48/87/87 42/103/103
f 42/103/103 48/87/87 43/88/88
f 42/103/103 43/88/88 36/102/102
f 36/102/102 43/88/88 37/89/89
f 36/102/102 37/89/89 30/101/101
f 30/101/101 37/89/89 31/90/90
f 30/101/101 31/90/90 25/100/100
f 25/100/100 31/90/90 26/91/91
f 25/100/100 26/91/91 19/99/99
f 19/99/99 26/91/91 20/92/92
f 19/99/99 20/92/92 13/98/98
f 13/98/98 20/92/92 14/93/93
f 13/98/98 14/93/93 7/97/97
f 7/97/97 14/93/93 8/94/94
f 7/97/97 8/94/94 2/96/96
f 2/96/96 8/94/94 3/95/95

# 76 vertices
# 108 texture params
# 108 normals
# 100 facets

# 1 groups
