# WaveFront *.obj file (generated by Autodesk ATF)

mtllib Crucifix_reka.mtl

g Bryła1

v 25.000000 -12.690680 -0.486445
v 25.000000 -12.616206 1.456479
v 25.000000 -12.467695 -2.417967
v 25.000000 -12.246020 3.365265
v 25.000000 -11.952479 -4.292814
v 25.000000 -11.588796 5.195172
v 25.000000 -11.157106 -6.067042
v 25.000000 -10.659941 6.903308
v 25.000000 -10.100219 -7.699063
v 25.000000 -9.481226 8.449636
v 25.000000 -8.806593 -9.150624
v 25.000000 -8.080279 9.797913
v 25.000000 -7.306547 -10.387703
v 25.000000 -6.489937 10.916533
v 25.000000 -5.635242 -11.381303
v 25.000000 -4.747477 11.779281
v 25.000000 -3.831851 -12.108134
v 25.000000 -2.893740 12.365932
v 25.000000 -1.938646 -12.551161
v 25.000000 -0.972176 12.662736
v 25.000000 0.000000 -12.700000
v 25.000000 0.972176 12.662736
v 25.000000 1.938646 -12.551161
v 25.000000 2.893740 12.365932
v 25.000000 3.831851 -12.108134
v 25.000000 4.747477 11.779281
v 25.000000 5.635242 -11.381303
v 25.000000 6.489937 10.916533
v 25.000000 7.306547 -10.387703
v 25.000000 8.080279 9.797913
v 25.000000 8.806593 -9.150624
v 25.000000 9.481226 8.449636
v 25.000000 10.100219 -7.699063
v 25.000000 10.659941 6.903308
v 25.000000 11.157106 -6.067042
v 25.000000 11.588796 5.195172
v 25.000000 11.952479 -4.292814
v 25.000000 12.246020 3.365265
v 25.000000 12.467695 -2.417967
v 25.000000 12.616206 1.456479
v 25.000000 12.690680 -0.486445
v 91.199999 -12.700000 0.000000
v 91.199999 -12.690680 -0.486445
v 91.199999 -12.616206 1.456479
v 91.199999 -12.467695 -2.417967
v 91.199999 -12.246020 3.365265
v 91.199999 -12.078418 -3.924516
v 91.199999 -12.078418 3.924516
v 91.199999 -11.952479 -4.292814
v 91.199999 -11.588796 5.195172
v 91.199999 -11.157106 -6.067042
v 91.199999 -10.659941 6.903308
v 91.199999 -10.274516 -7.464873
v 91.199999 -10.274516 7.464873
v 91.199999 -10.100219 -7.699063
v 91.199999 -9.481226 8.449636
v 91.199999 -8.806593 -9.150624
v 91.199999 -8.080279 9.797913
v 91.199999 -7.464873 -10.274516
v 91.199999 -7.464873 10.274516
v 91.199999 -7.306547 -10.387703
v 91.199999 -6.489937 10.916533
v 91.199999 -5.635242 -11.381303
v 91.199999 -4.747477 11.779281
v 91.199999 -3.924516 -12.078418
v 91.199999 -3.924516 12.078418
v 91.199999 -3.831851 -12.108134
v 91.199999 -2.893740 12.365932
v 91.199999 -1.938646 -12.551161
v 91.199999 -0.972176 12.662736
v 91.199999 0.000000 -12.700000
v 91.199999 0.000000 12.700000
v 91.199999 0.972176 12.662736
v 91.199999 1.938646 -12.551161
v 91.199999 2.893740 12.365932
v 91.199999 3.831851 -12.108134
v 91.199999 3.924516 -12.078418
v 91.199999 3.924516 12.078418
v 91.199999 4.747477 11.779281
v 91.199999 5.635242 -11.381303
v 91.199999 6.489937 10.916533
v 91.199999 7.306547 -10.387703
v 91.199999 7.464873 -10.274516
v 91.199999 7.464873 10.274516
v 91.199999 8.080279 9.797913
v 91.199999 8.806593 -9.150624
v 91.199999 9.481226 8.449636
v 91.199999 10.100219 -7.699063
v 91.199999 10.274516 -7.464873
v 91.199999 10.274516 7.464873
v 91.199999 10.659941 6.903308
v 91.199999 11.157106 -6.067042
v 91.199999 11.588796 5.195172
v 91.199999 11.952479 -4.292814
v 91.199999 12.078418 -3.924516
v 91.199999 12.078418 3.924516
v 91.199999 12.246020 3.365265
v 91.199999 12.467695 -2.417967
v 91.199999 12.616206 1.456479
v 91.199999 12.690680 -0.486445
v 91.199999 12.700000 0.000000
vt -6.620000 3.989823 0.000000
vt -6.620000 3.795197 0.000000
vt -6.620000 3.600572 0.000000
vt -6.620000 3.405946 0.000000
vt -6.620000 3.211321 0.000000
vt -6.620000 3.016695 0.000000
vt -6.620000 2.822070 0.000000
vt -6.620000 2.627444 0.000000
vt -6.620000 2.432819 0.000000
vt -6.620000 2.238193 0.000000
vt -6.620000 2.043568 0.000000
vt -6.620000 1.848942 0.000000
vt -6.620000 1.654317 0.000000
vt -6.620000 1.459691 0.000000
vt -6.620000 1.265066 0.000000
vt -6.620000 1.070440 0.000000
vt -6.620000 0.875815 0.000000
vt -6.620000 0.681189 0.000000
vt -6.620000 0.486564 0.000000
vt -6.620000 0.291938 0.000000
vt -6.620000 0.097313 0.000000
vt -6.620000 -0.097313 0.000000
vt -6.620000 -0.291938 0.000000
vt -6.620000 -0.486564 0.000000
vt -6.620000 -0.681189 0.000000
vt -6.620000 -0.875815 0.000000
vt -6.620000 -1.070440 0.000000
vt -6.620000 -1.265066 0.000000
vt -6.620000 -1.459691 0.000000
vt -6.620000 -1.654317 0.000000
vt -6.620000 -1.848942 0.000000
vt -6.620000 -2.043568 0.000000
vt -6.620000 -2.238193 0.000000
vt -6.620000 -2.432819 0.000000
vt -6.620000 -2.627444 0.000000
vt -6.620000 -2.822070 0.000000
vt -6.620000 -3.016695 0.000000
vt -6.620000 -3.211321 0.000000
vt -6.620000 -3.405946 0.000000
vt -6.620000 -3.600572 0.000000
vt -6.620000 -3.795197 0.000000
vt -0.000000 -3.989823 0.000000
vt -0.000000 -3.795197 0.000000
vt -0.000000 -3.600572 0.000000
vt -0.000000 -3.405946 0.000000
vt -0.000000 -3.211321 0.000000
vt -0.000000 -3.016695 0.000000
vt -0.000000 -2.822070 0.000000
vt -0.000000 -2.627444 0.000000
vt -0.000000 -2.432819 0.000000
vt -0.000000 -2.238193 0.000000
vt -0.000000 -2.043568 0.000000
vt -0.000000 -1.848942 0.000000
vt -0.000000 -1.654317 0.000000
vt -0.000000 -1.459691 0.000000
vt -0.000000 -1.265066 0.000000
vt -0.000000 -1.070440 0.000000
vt -0.000000 -0.875815 0.000000
vt -0.000000 -0.681189 0.000000
vt -0.000000 -0.486564 0.000000
vt -0.000000 -0.291938 0.000000
vt -0.000000 -0.097313 0.000000
vt -0.000000 0.097313 0.000000
vt -0.000000 0.291938 0.000000
vt -0.000000 0.486564 0.000000
vt -0.000000 0.681189 0.000000
vt -0.000000 0.875815 0.000000
vt -0.000000 1.070440 0.000000
vt -0.000000 1.265066 0.000000
vt -0.000000 1.459691 0.000000
vt -0.000000 1.654317 0.000000
vt -0.000000 1.848942 0.000000
vt -0.000000 2.043568 0.000000
vt -0.000000 2.238193 0.000000
vt -0.000000 2.432819 0.000000
vt -0.000000 2.627444 0.000000
vt -0.000000 2.822070 0.000000
vt -0.000000 3.016695 0.000000
vt -0.000000 3.211321 0.000000
vt -0.000000 3.405946 0.000000
vt -0.000000 3.600572 0.000000
vt -0.000000 3.795197 0.000000
vt -0.000000 3.989823 0.000000
vt -6.620000 -3.989823 0.000000
vt -1.901861 -2.427676 0.000000
vt -1.886977 -2.621541 0.000000
vt -1.842674 -2.810862 0.000000
vt -1.769991 -2.991200 0.000000
vt -1.670631 -3.158331 0.000000
vt -1.546923 -3.308336 0.000000
vt -1.401767 -3.437698 0.000000
vt -1.238565 -3.543387 0.000000
vt -1.061142 -3.622924 0.000000
vt -0.873658 -3.674446 0.000000
vt -0.680505 -3.696744 0.000000
vt -0.486213 -3.689297 0.000000
vt -0.295334 -3.652278 0.000000
vt -0.112344 -3.586556 0.000000
vt 0.058470 -3.493670 0.000000
vt 0.213103 -3.375799 0.000000
vt 0.347930 -3.235704 0.000000
vt 0.459792 -3.076670 0.000000
vt 0.546067 -2.902424 0.000000
vt 0.604732 -2.717050 0.000000
vt 0.634413 -2.524894 0.000000
vt 0.634413 -2.330459 0.000000
vt 0.604732 -2.138302 0.000000
vt 0.546067 -1.952929 0.000000
vt 0.459792 -1.778683 0.000000
vt 0.347930 -1.619648 0.000000
vt 0.213103 -1.479554 0.000000
vt 0.058470 -1.361682 0.000000
vt -0.112344 -1.268797 0.000000
vt -0.295334 -1.203074 0.000000
vt -0.486213 -1.166056 0.000000
vt -0.680505 -1.158608 0.000000
vt -0.873658 -1.180907 0.000000
vt -1.061142 -1.232428 0.000000
vt -1.238565 -1.311966 0.000000
vt -1.401767 -1.417654 0.000000
vt -1.546923 -1.547017 0.000000
vt -1.670631 -1.697022 0.000000
vt -1.769991 -1.864152 0.000000
vt -1.842674 -2.044491 0.000000
vt -1.886977 -2.233812 0.000000
vt 1.270000 0.000000 0.000000
vt 1.207842 0.392452 0.000000
vt 1.027452 0.746487 0.000000
vt 0.746487 1.027452 0.000000
vt 0.392452 1.207842 0.000000
vt 0.000000 1.270000 0.000000
vt -0.392452 1.207842 0.000000
vt -0.746487 1.027452 0.000000
vt -1.027452 0.746487 0.000000
vt -1.207842 0.392452 0.000000
vt -1.270000 0.000000 0.000000
vt -1.207842 -0.392452 0.000000
vt -1.027452 -0.746487 0.000000
vt -0.746487 -1.027452 0.000000
vt -0.392452 -1.207842 0.000000
vt 0.000000 -1.270000 0.000000
vt 0.392452 -1.207842 0.000000
vt 0.746487 -1.027452 0.000000
vt 1.027452 -0.746487 0.000000
vt 1.207842 -0.392452 0.000000
vn 0.000000 0.000000 -0.100000
vn 0.000000 0.015265 -0.098828
vn 0.000000 0.030172 -0.095340
vn 0.000000 0.044372 -0.089617
vn 0.000000 0.057532 -0.081793
vn 0.000000 0.069343 -0.072052
vn 0.000000 0.079529 -0.060623
vn 0.000000 0.087851 -0.047772
vn 0.000000 0.094114 -0.033802
vn 0.000000 0.098171 -0.019039
vn 0.000000 0.099927 -0.003830
vn 0.000000 0.099340 0.011468
vn 0.000000 0.096425 0.026498
vn 0.000000 0.091250 0.040907
vn 0.000000 0.083937 0.054357
vn 0.000000 0.074655 0.066533
vn 0.000000 0.063624 0.077149
vn 0.000000 0.051102 0.085957
vn 0.000000 0.037382 0.092750
vn 0.000000 0.022785 0.097370
vn 0.000000 0.007655 0.099707
vn 0.000000 -0.007655 0.099707
vn 0.000000 -0.022785 0.097370
vn 0.000000 -0.037382 0.092750
vn 0.000000 -0.051102 0.085957
vn 0.000000 -0.063624 0.077149
vn 0.000000 -0.074655 0.066533
vn 0.000000 -0.083937 0.054357
vn 0.000000 -0.091250 0.040907
vn 0.000000 -0.096425 0.026498
vn 0.000000 -0.099340 0.011468
vn 0.000000 -0.099927 -0.003830
vn 0.000000 -0.098171 -0.019039
vn 0.000000 -0.094114 -0.033802
vn 0.000000 -0.087851 -0.047772
vn 0.000000 -0.079529 -0.060623
vn 0.000000 -0.069343 -0.072052
vn 0.000000 -0.057532 -0.081793
vn 0.000000 -0.044372 -0.089617
vn 0.000000 -0.030172 -0.095340
vn 0.000000 -0.015265 -0.098828
vn 0.000000 0.000000 -0.100000
vn 0.000000 -0.015265 -0.098828
vn 0.000000 -0.030172 -0.095340
vn 0.000000 -0.044372 -0.089617
vn 0.000000 -0.057532 -0.081793
vn 0.000000 -0.069343 -0.072052
vn 0.000000 -0.079529 -0.060623
vn 0.000000 -0.087851 -0.047772
vn 0.000000 -0.094114 -0.033802
vn 0.000000 -0.098171 -0.019039
vn 0.000000 -0.099927 -0.003830
vn 0.000000 -0.099340 0.011468
vn 0.000000 -0.096425 0.026498
vn 0.000000 -0.091250 0.040907
vn 0.000000 -0.083937 0.054357
vn 0.000000 -0.074655 0.066533
vn 0.000000 -0.063624 0.077149
vn 0.000000 -0.051102 0.085957
vn 0.000000 -0.037382 0.092750
vn 0.000000 -0.022785 0.097370
vn 0.000000 -0.007655 0.099707
vn 0.000000 0.007655 0.099707
vn 0.000000 0.022785 0.097370
vn 0.000000 0.037382 0.092750
vn 0.000000 0.051102 0.085957
vn 0.000000 0.063624 0.077149
vn 0.000000 0.074655 0.066533
vn 0.000000 0.083937 0.054357
vn 0.000000 0.091250 0.040907
vn 0.000000 0.096425 0.026498
vn 0.000000 0.099340 0.011468
vn 0.000000 0.099927 -0.003830
vn 0.000000 0.098171 -0.019039
vn 0.000000 0.094114 -0.033802
vn 0.000000 0.087851 -0.047772
vn 0.000000 0.079529 -0.060623
vn 0.000000 0.069343 -0.072052
vn 0.000000 0.057532 -0.081793
vn 0.000000 0.044372 -0.089617
vn 0.000000 0.030172 -0.095340
vn 0.000000 0.015265 -0.098828
vn 0.000000 0.000000 -0.100000
vn 0.000000 0.000000 -0.100000
vn -0.100000 0.000000 0.000000
vn -0.100000 0.000000 0.000000
vn -0.100000 0.000000 0.000000
vn -0.100000 0.000000 0.000000
vn -0.100000 0.000000 0.000000
vn -0.100000 0.000000 0.000000
vn -0.100000 0.000000 0.000000
vn -0.100000 0.000000 0.000000
vn -0.100000 0.000000 0.000000
vn -0.100000 0.000000 0.000000
vn -0.100000 0.000000 0.000000
vn -0.100000 0.000000 0.000000
vn -0.100000 0.000000 0.000000
vn -0.100000 0.000000 0.000000
vn -0.100000 0.000000 0.000000
vn -0.100000 0.000000 0.000000
vn -0.100000 0.000000 0.000000
vn -0.100000 0.000000 0.000000
vn -0.100000 0.000000 0.000000
vn -0.100000 0.000000 0.000000
vn -0.100000 0.000000 0.000000
vn -0.100000 0.000000 0.000000
vn -0.100000 0.000000 0.000000
vn -0.100000 0.000000 0.000000
vn -0.100000 0.000000 0.000000
vn -0.100000 0.000000 0.000000
vn -0.100000 0.000000 0.000000
vn -0.100000 0.000000 0.000000
vn -0.100000 0.000000 0.000000
vn -0.100000 0.000000 0.000000
vn -0.100000 0.000000 0.000000
vn -0.100000 0.000000 0.000000
vn -0.100000 0.000000 0.000000
vn -0.100000 0.000000 0.000000
vn -0.100000 0.000000 0.000000
vn -0.100000 0.000000 0.000000
vn -0.100000 0.000000 0.000000
vn -0.100000 0.000000 0.000000
vn -0.100000 0.000000 0.000000
vn -0.100000 0.000000 0.000000
vn -0.100000 0.000000 0.000000
vn 0.100000 0.000000 0.000000
vn 0.100000 0.000000 0.000000
vn 0.100000 0.000000 0.000000
vn 0.100000 0.000000 0.000000
vn 0.100000 0.000000 0.000000
vn 0.100000 0.000000 0.000000
vn 0.100000 0.000000 0.000000
vn 0.100000 0.000000 0.000000
vn 0.100000 0.000000 0.000000
vn 0.100000 0.000000 0.000000
vn 0.100000 0.000000 0.000000
vn 0.100000 0.000000 0.000000
vn 0.100000 0.000000 0.000000
vn 0.100000 0.000000 0.000000
vn 0.100000 0.000000 0.000000
vn 0.100000 0.000000 0.000000
vn 0.100000 0.000000 0.000000
vn 0.100000 0.000000 0.000000
vn 0.100000 0.000000 0.000000
vn 0.100000 0.000000 0.000000
usemtl 33,138,33
f 23/2/2 74/82/82 21/1/1
f 21/1/1 74/82/82 71/83/83
f 21/84/84 71/42/42 19/41/41
f 19/41/41 71/42/42 69/43/43
f 19/41/41 69/43/43 17/40/40
f 17/40/40 69/43/43 67/44/44
f 17/40/40 67/44/44 15/39/39
f 15/39/39 67/44/44 63/45/45
f 15/39/39 63/45/45 13/38/38
f 13/38/38 63/45/45 61/46/46
f 13/38/38 61/46/46 11/37/37
f 11/37/37 61/46/46 57/47/47
f 11/37/37 57/47/47 9/36/36
f 9/36/36 57/47/47 55/48/48
f 9/36/36 55/48/48 7/35/35
f 7/35/35 55/48/48 51/49/49
f 7/35/35 51/49/49 5/34/34
f 5/34/34 51/49/49 49/50/50
f 5/34/34 49/50/50 3/33/33
f 3/33/33 49/50/50 45/51/51
f 3/33/33 45/51/51 1/32/32
f 1/32/32 45/51/51 43/52/52
f 1/32/32 43/52/52 2/31/31
f 2/31/31 43/52/52 44/53/53
f 2/31/31 44/53/53 4/30/30
f 4/30/30 44/53/53 46/54/54
f 4/30/30 46/54/54 6/29/29
f 6/29/29 46/54/54 50/55/55
f 6/29/29 50/55/55 8/28/28
f 8/28/28 50/55/55 52/56/56
f 8/28/28 52/56/56 10/27/27
f 10/27/27 52/56/56 56/57/57
f 10/27/27 56/57/57 12/26/26
f 12/26/26 56/57/57 58/58/58
f 12/26/26 58/58/58 14/25/25
f 14/25/25 58/58/58 62/59/59
f 14/25/25 62/59/59 16/24/24
f 16/24/24 62/59/59 64/60/60
f 16/24/24 64/60/60 18/23/23
f 18/23/23 64/60/60 68/61/61
f 18/23/23 68/61/61 20/22/22
f 20/22/22 68/61/61 70/62/62
f 20/22/22 70/62/62 22/21/21
f 22/21/21 70/62/62 73/63/63
f 22/21/21 73/63/63 24/20/20
f 24/20/20 73/63/63 75/64/64
f 24/20/20 75/64/64 26/19/19
f 26/19/19 75/64/64 79/65/65
f 26/19/19 79/65/65 28/18/18
f 28/18/18 79/65/65 81/66/66
f 28/18/18 81/66/66 30/17/17
f 30/17/17 81/66/66 85/67/67
f 30/17/17 85/67/67 32/16/16
f 32/16/16 85/67/67 87/68/68
f 32/16/16 87/68/68 34/15/15
f 34/15/15 87/68/68 91/69/69
f 34/15/15 91/69/69 36/14/14
f 36/14/14 91/69/69 93/70/70
f 36/14/14 93/70/70 38/13/13
f 38/13/13 93/70/70 97/71/71
f 38/13/13 97/71/71 40/12/12
f 40/12/12 97/71/71 99/72/72
f 40/12/12 99/72/72 41/11/11
f 41/11/11 99/72/72 100/73/73
f 41/11/11 100/73/73 39/10/10
f 39/10/10 100/73/73 98/74/74
f 39/10/10 98/74/74 37/9/9
f 37/9/9 98/74/74 94/75/75
f 37/9/9 94/75/75 35/8/8
f 35/8/8 94/75/75 92/76/76
f 35/8/8 92/76/76 33/7/7
f 33/7/7 92/76/76 88/77/77
f 33/7/7 88/77/77 31/6/6
f 31/6/6 88/77/77 86/78/78
f 31/6/6 86/78/78 29/5/5
f 29/5/5 86/78/78 82/79/79
f 29/5/5 82/79/79 27/4/4
f 27/4/4 82/79/79 80/80/80
f 27/4/4 80/80/80 25/3/3
f 25/3/3 80/80/80 76/81/81
f 25/3/3 76/81/81 23/2/2
f 23/2/2 76/81/81 74/82/82
f 21/85/85 19/86/86 23/125/125
f 23/125/125 19/86/86 25/124/124
f 25/124/124 19/86/86 17/87/87
f 25/124/124 17/87/87 27/123/123
f 27/123/123 17/87/87 29/122/122
f 29/122/122 17/87/87 31/121/121
f 31/121/121 17/87/87 33/120/120
f 33/120/120 17/87/87 35/119/119
f 35/119/119 17/87/87 37/118/118
f 37/118/118 17/87/87 39/117/117
f 39/117/117 17/87/87 41/116/116
f 41/116/116 17/87/87 16/103/103
f 41/116/116 16/103/103 40/115/115
f 40/115/115 16/103/103 38/114/114
f 38/114/114 16/103/103 36/113/113
f 36/113/113 16/103/103 34/112/112
f 34/112/112 16/103/103 32/111/111
f 32/111/111 16/103/103 30/110/110
f 30/110/110 16/103/103 28/109/109
f 28/109/109 16/103/103 26/108/108
f 26/108/108 16/103/103 18/104/104
f 26/108/108 18/104/104 24/107/107
f 24/107/107 18/104/104 20/105/105
f 24/107/107 20/105/105 22/106/106
f 17/87/87 15/88/88 16/103/103
f 16/103/103 15/88/88 14/102/102
f 14/102/102 15/88/88 13/89/89
f 14/102/102 13/89/89 12/101/101
f 12/101/101 13/89/89 11/90/90
f 12/101/101 11/90/90 10/100/100
f 10/100/100 11/90/90 9/91/91
f 10/100/100 9/91/91 8/99/99
f 8/99/99 9/91/91 7/92/92
f 8/99/99 7/92/92 6/98/98
f 6/98/98 7/92/92 5/93/93
f 6/98/98 5/93/93 4/97/97
f 4/97/97 5/93/93 3/94/94
f 4/97/97 3/94/94 2/96/96
f 2/96/96 3/94/94 1/95/95
f 77/127/127 78/135/135 71/126/126
f 71/126/126 78/135/135 72/136/136
f 71/126/126 72/136/136 65/145/145
f 65/145/145 72/136/136 66/137/137
f 65/145/145 66/137/137 59/144/144
f 59/144/144 66/137/137 60/138/138
f 59/144/144 60/138/138 53/143/143
f 53/143/143 60/138/138 54/139/139
f 53/143/143 54/139/139 47/142/142
f 47/142/142 54/139/139 48/140/140
f 47/142/142 48/140/140 42/141/141
f 78/135/135 77/127/127 84/134/134
f 84/134/134 77/127/127 83/128/128
f 84/134/134 83/128/128 90/133/133
f 90/133/133 83/128/128 89/129/129
f 90/133/133 89/129/129 96/132/132
f 96/132/132 89/129/129 95/130/130
f 96/132/132 95/130/130 101/131/131

# 101 vertices
# 145 texture params
# 145 normals
# 139 facets

# 1 groups
