# WaveFront *.obj file (generated by Autodesk ATF)

mtllib pokrywka_update.mtl

g Bryła1

v -459.199982 -609.599991 0.000000
v -459.199982 -609.599991 4.000000
v -459.199982 -304.839993 -0.010000
v -459.199982 -304.839993 0.000000
v -459.199982 0.000000 -0.010000
v -459.199982 0.000000 4.000000
v -228.600006 -609.599991 -0.010000
v -228.600006 -609.599991 0.000000
v -228.600006 -304.839993 -0.010000
v -228.600006 -304.839993 0.000000
v -228.549995 -304.829998 -0.010000
v -228.549995 -304.829998 0.000000
v -228.549995 0.000000 -0.010000
v -228.549995 0.000000 0.000000
v 0.000000 -609.599991 -0.010000
v 0.000000 -609.599991 4.000000
v 0.000000 -304.829998 -0.010000
v 0.000000 -304.829998 0.000000
v 0.000000 0.000000 0.000000
v 0.000000 0.000000 4.000000
vt 0.000000 -30.483000 0.000000
vt 22.855000 -30.483000 0.000000
vt 22.855000 0.000000 0.000000
vt 0.000000 0.000000 0.000000
vt 45.919998 -60.959999 0.000000
vt 45.919998 -30.483999 0.000000
vt 22.860001 -30.483999 0.000000
vt 22.860001 -60.959999 0.000000
vt 0.001000 30.476000 0.000000
vt -0.000000 30.476000 0.000000
vt -0.000000 0.000000 0.000000
vt 0.001000 0.000000 0.000000
vt -0.000000 -22.855000 0.000000
vt 0.001000 -22.855000 0.000000
vt 0.001000 0.000000 0.000000
vt -0.000000 0.000000 0.000000
vt -0.000000 60.959999 0.000000
vt -0.401000 60.959999 0.000000
vt -0.401000 30.476000 0.000000
vt -0.400000 30.476000 0.000000
vt -0.400000 0.000000 0.000000
vt -0.000000 0.000000 0.000000
vt 0.400000 -45.919998 0.000000
vt 0.400000 -22.860001 0.000000
vt 0.401000 -22.860001 0.000000
vt 0.401000 0.000000 0.000000
vt -0.000000 0.000000 0.000000
vt -0.000000 -45.919998 0.000000
vt -0.000000 -60.959999 0.000000
vt 0.401000 -60.959999 0.000000
vt 0.401000 -30.483000 0.000000
vt 0.400000 -30.483000 0.000000
vt 0.400000 0.000000 0.000000
vt -0.000000 0.000000 0.000000
vt -0.400000 45.919998 0.000000
vt -0.400000 23.065001 0.000000
vt -0.401000 23.065001 0.000000
vt -0.401000 0.000000 0.000000
vt -0.000000 0.000000 0.000000
vt -0.000000 45.919998 0.000000
vt -45.919998 0.000000 0.000000
vt -45.919998 -60.959999 0.000000
vt -0.000000 -60.959999 0.000000
vt -0.000000 0.000000 0.000000
vt 22.860001 -60.959999 0.000000
vt 22.860001 -30.483999 0.000000
vt 45.919998 -30.483999 0.000000
vt 45.919998 0.000000 0.000000
vt 22.855000 0.000000 0.000000
vt 22.855000 -30.483000 0.000000
vt -0.000000 -30.483000 0.000000
vt -0.000000 -60.959999 0.000000
vt -0.001000 0.000000 0.000000
vt -0.001000 -30.483000 0.000000
vt -0.000000 -30.483000 0.000000
vt -0.000000 0.000000 0.000000
vt -0.000000 0.000000 0.000000
vt -0.000000 23.059999 0.000000
vt -0.001000 23.059999 0.000000
vt -0.001000 0.000000 0.000000
vn 0.000000 0.000000 -0.100000
vn 0.000000 0.000000 -0.100000
vn 0.000000 0.000000 -0.100000
vn 0.000000 0.000000 -0.100000
vn 0.000000 0.000000 -0.100000
vn 0.000000 0.000000 -0.100000
vn 0.000000 0.000000 -0.100000
vn 0.000000 0.000000 -0.100000
vn -0.100000 0.000000 0.000000
vn -0.100000 0.000000 0.000000
vn -0.100000 0.000000 0.000000
vn -0.100000 0.000000 0.000000
vn 0.000000 0.100000 0.000000
vn 0.000000 0.100000 0.000000
vn 0.000000 0.100000 0.000000
vn 0.000000 0.100000 0.000000
vn -0.100000 0.000000 0.000000
vn -0.100000 0.000000 0.000000
vn -0.100000 0.000000 0.000000
vn -0.100000 0.000000 0.000000
vn -0.100000 0.000000 0.000000
vn -0.100000 0.000000 0.000000
vn 0.000000 -0.100000 0.000000
vn 0.000000 -0.100000 0.000000
vn 0.000000 -0.100000 0.000000
vn 0.000000 -0.100000 0.000000
vn 0.000000 -0.100000 0.000000
vn 0.000000 -0.100000 0.000000
vn 0.100000 0.000000 0.000000
vn 0.100000 0.000000 0.000000
vn 0.100000 0.000000 0.000000
vn 0.100000 0.000000 0.000000
vn 0.100000 0.000000 0.000000
vn 0.100000 0.000000 0.000000
vn 0.000000 0.100000 0.000000
vn 0.000000 0.100000 0.000000
vn 0.000000 0.100000 0.000000
vn 0.000000 0.100000 0.000000
vn 0.000000 0.100000 0.000000
vn 0.000000 0.100000 0.000000
vn 0.000000 0.000000 0.100000
vn 0.000000 0.000000 0.100000
vn 0.000000 0.000000 0.100000
vn 0.000000 0.000000 0.100000
vn 0.000000 0.000000 -0.100000
vn 0.000000 0.000000 -0.100000
vn 0.000000 0.000000 -0.100000
vn 0.000000 0.000000 -0.100000
vn 0.000000 0.000000 -0.100000
vn 0.000000 0.000000 -0.100000
vn 0.000000 0.000000 -0.100000
vn 0.000000 0.000000 -0.100000
vn 0.100000 0.000000 0.000000
vn 0.100000 0.000000 0.000000
vn 0.100000 0.000000 0.000000
vn 0.100000 0.000000 0.000000
vn 0.000000 -0.100000 0.000000
vn 0.000000 -0.100000 0.000000
vn 0.000000 -0.100000 0.000000
vn 0.000000 -0.100000 0.000000
usemtl 221,221,13
f 18/1/1 12/2/2 19/4/4
f 19/4/4 12/2/2 14/3/3
f 4/6/6 10/7/7 1/5/5
f 1/5/5 10/7/7 8/8/8
usemtl 202,209,238
f 10/9/9 9/10/10 8/12/12
f 8/12/12 9/10/10 7/11/11
f 11/13/13 12/14/14 17/16/16
f 17/16/16 12/14/14 18/15/15
f 2/22/22 6/17/17 4/20/20
f 4/20/20 6/17/17 5/18/18
f 4/20/20 5/18/18 3/19/19
f 4/20/20 1/21/21 2/22/22
f 1/23/23 8/24/24 2/28/28
f 2/28/28 8/24/24 16/27/27
f 16/27/27 8/24/24 15/26/26
f 15/26/26 8/24/24 7/25/25
f 20/34/34 16/29/29 18/32/32
f 18/32/32 16/29/29 15/30/30
f 18/32/32 15/30/30 17/31/31
f 18/32/32 19/33/33 20/34/34
f 19/35/35 14/36/36 20/40/40
f 20/40/40 14/36/36 6/39/39
f 6/39/39 14/36/36 5/38/38
f 5/38/38 14/36/36 13/37/37
f 2/42/42 16/43/43 6/41/41
f 6/41/41 16/43/43 20/44/44
usemtl 840EDFE9E54295EC0CCFCC6B8A57544615D92180
f 15/52/52 7/45/45 11/50/50
f 11/50/50 7/45/45 9/46/46
f 11/50/50 9/46/46 13/49/49
f 13/49/49 9/46/46 5/48/48
f 5/48/48 9/46/46 3/47/47
f 11/50/50 17/51/51 15/52/52
usemtl 202,209,238
f 12/54/54 11/55/55 14/53/53
f 14/53/53 11/55/55 13/56/56
f 9/58/58 10/59/59 3/57/57
f 3/57/57 10/59/59 4/60/60

# 20 vertices
# 60 texture params
# 60 normals
# 36 facets

# 1 groups
